<svg version="1" xmlns="http://www.w3.org/2000/svg" width="682.667" height="682.667" viewBox="0 0 512.000000 512.000000"><path d="M230.8 19.5c-.2.2-2.6.6-5.3.9-42 4.1-85.7 32.1-111 71-12.3 18.8-19.7 38.8-23 61.5-1.3 9.4-1.4 38.4-.1 44.3.3 1.6.8 3.8 1 5 3.4 19 13.3 42.3 26.3 62.2 7.2 10.8 7 10.6 15.8 21 7.3 8.8 36.1 37.5 55.5 55.6 45 41.8 57.2 57.6 57.1 73.7-.1 11.7-6.7 21.6-18.1 27-4.2 2-7.3 2.6-14 2.9-26.8 1.1-52.4-15.5-71.5-46-5-8.1-11.5-22.3-13.4-29.4-.7-2.3-1.7-4.2-2.3-4.2-1.3 0-38 10.6-42.1 12.2-3.2 1.2-3.3.5 2 14.8 3.9 10.4 12.4 28.3 14.4 30 .3.3 1.8 2.5 3.2 5 7.4 12.7 26.9 33.1 41.4 43.3 12.5 8.8 31.2 17.2 42.5 19.2 23.8 4.2 43.7 2.6 59.5-5 17.6-8.3 32.1-22.5 39.7-38.7 6.4-13.8 8.2-33.9 4.5-48.6-3.3-13.2-13.7-32.4-24.7-45.6-5.2-6.2-51.8-51.7-62.9-61.4-9.7-8.4-29.7-28.1-34.2-33.7-17.8-21.8-28.7-43.7-32.2-64.1-1.4-8.4-1.4-25.7 0-33.9 1.9-11.2 2.8-14.6 6.3-23.5 10.6-27 35.1-51.2 62.4-61.8 13.4-5.1 22.9-6.7 40.4-6.6 12.3.1 17.3.5 24.5 2.3 17 4.1 32.1 11.9 45.8 23.6l6.9 5.8 16.4-16.4L358 65.6l-3.8-3.9c-4.6-4.8-17.9-15.2-25.2-19.8-15.8-9.9-36.8-18-53-20.5-1.9-.3-4.6-.8-6-1.1-2.9-.6-38.6-1.3-39.2-.8z"/><path d="M224.3 78.7c-3.5.8-6.3 1.8-6.3 2.1 0 .4 2.1 2.8 4.8 5.3 4.5 4.4 126.3 127.5 150.7 152.4 21.8 22.1 31.3 34.9 40.5 54 4.5 9.5 10 24.3 11.5 31.2 1 5.1 2.2 4.7 1.9-.5-.5-9-1.5-19.5-1.8-20.1-.2-.3-.7-2.2-1-4.1-3.6-22.2-15.7-45.2-33-62.6C381.2 226 261 104.3 247.8 90.9c-8.1-8.3-14.4-13.9-15.5-13.8-1 0-4.6.7-8 1.6z"/><path d="M196.8 89.6c-3.2 2-5.8 3.9-5.8 4.3 0 .4 1 1.6 2.3 2.7 4 3.6 143.3 144.7 168.8 171 10.2 10.6 17.2 19.6 23.7 30.7 14 23.9 22.5 49.6 24.7 74.7.1 1.4.3 7.9.5 14.5l.2 12 2.9-6.3c7.7-16.4 10.6-29.7 8.6-39.2-6.8-32.8-19.1-59.8-37.7-82.5-7.4-9-9.8-11.4-90.6-93.2-37.5-37.8-73.4-74.1-79.7-80.6C208.3 91.3 203 86 202.8 86c-.2 0-2.9 1.7-6 3.6z"/><path d="M174.1 107.6c-2.3 2.6-4.1 5-4.1 5.3 0 .6 19.4 20.3 119.1 121.3 31.2 31.5 58.9 60 61.6 63.3 17 20.4 29.8 50.4 33.8 79.2.3 2.1.7 4.7 1 5.8 1.5 7.1 2.3 35 1.2 41.5-.4 1.9-1.3 5.6-2.1 8.2-.8 2.7-1.1 4.8-.8 4.8 1.2-.1 13.7-16 15.1-19.3 1.6-3.5 2.2-35.8.9-45.2-2.3-17-7.5-34-14.8-49.2-4.9-10-15.2-26.2-21.3-33.2-8.5-9.8-183.6-187.1-184.8-187.1-.4 0-2.6 2.1-4.8 4.6z"/><path d="M160.2 126.3c-.5.6-2.2 3.6-3.6 6.5l-2.7 5.4 33 33.1c18.1 18.3 40.1 40.5 48.8 49.3 8.7 8.9 33.6 34.2 55.3 56.1 43 43.5 48.7 50.3 58.4 69.8 10.4 20.9 14.8 37.8 15.1 58.5.3 18.4-2 30.9-8.8 47.7-1.8 4.3-2.2 6.3-1.3 6.3 1.5 0 14.7-8.7 16.3-10.9 1.5-1.9 5.1-13.1 5.9-18 .3-1.8.8-4.3 1.1-5.5.3-1.1.7-9.1.8-17.6.5-31.6-7.2-57.3-24.9-83.5-9.2-13.5-3.3-7.3-95.1-100-36.3-36.7-73-73.8-81.6-82.6-11.5-11.6-16-15.5-16.7-14.6z"/><path d="M148.7 157.1c-.4 1.8-.9 5.9-1.2 8.9l-.6 5.5 19.6 20c10.8 11 40.9 41.5 66.8 67.8 53 53.8 62.9 63.9 72.9 74.7 26.5 28.3 37 65.1 30.2 106-1.7 10.4-8.5 26.4-14.8 34.9-1.4 1.9-2.4 3.6-2.2 3.8.3.3 3.8-1.1 13.9-5.5 3.3-1.4 4.4-2.9 8.7-11.6 7.2-14.7 10.4-28.4 10.4-45.6 0-7.7-1.3-24-1.9-25.1-.2-.3-.7-2.1-1-4-2.6-15.3-12.7-37.1-24.2-52.2-6-7.8-7.2-9-88.9-92.3-23.2-23.6-52.3-53.2-64.6-65.8l-22.5-23-.6 3.5z"/><path d="M149.5 198.5c1 7.1 5.4 20.5 7.8 24 1.1 1.6 18.1 19.1 37.6 38.8 95.2 95.8 96.2 96.7 104.3 112.2 7 13.4 11.3 30.2 11.7 46.3.7 24.7-10.4 49-27.6 60.8-4.4 3-5.8 4.5-5 5.2 1.5 1.1 22.4-2.3 24.4-4 2.3-1.9 9.6-11.7 12.6-17 3.4-5.9 8.4-20.9 9.3-27.9.4-3 .7-10.6.7-16.9-.2-25.2-8.4-49.3-23.7-69.5-6.3-8.2-7.3-9.3-76.6-79.5-29.4-29.8-58.6-59.4-64.9-65.8l-11.4-11.7.8 5z"/></svg>